<svg id="visual" viewBox="0 0 900 600" width="900" height="600" xmlns="http://www.w3.org/2000/svg" xmlns:xlink="http://www.w3.org/1999/xlink" version="1.1"><rect x="0" y="0" width="900" height="600" fill="#111010"></rect><path d="M0 355L21.5 356.5C43 358 86 361 128.8 370.7C171.7 380.3 214.3 396.7 257.2 402.2C300 407.7 343 402.3 385.8 401.2C428.7 400 471.3 403 514.2 405.3C557 407.7 600 409.3 642.8 408.2C685.7 407 728.3 403 771.2 394.8C814 386.7 857 374.3 878.5 368.2L900 362L900 601L878.5 601C857 601 814 601 771.2 601C728.3 601 685.7 601 642.8 601C600 601 557 601 514.2 601C471.3 601 428.7 601 385.8 601C343 601 300 601 257.2 601C214.3 601 171.7 601 128.8 601C86 601 43 601 21.5 601L0 601Z" fill="#333333"></path><path d="M0 400L21.5 401.3C43 402.7 86 405.3 128.8 409C171.7 412.7 214.3 417.3 257.2 425.3C300 433.3 343 444.7 385.8 453.2C428.7 461.7 471.3 467.3 514.2 459.8C557 452.3 600 431.7 642.8 431.5C685.7 431.3 728.3 451.7 771.2 450.8C814 450 857 428 878.5 417L900 406L900 601L878.5 601C857 601 814 601 771.2 601C728.3 601 685.7 601 642.8 601C600 601 557 601 514.2 601C471.3 601 428.7 601 385.8 601C343 601 300 601 257.2 601C214.3 601 171.7 601 128.8 601C86 601 43 601 21.5 601L0 601Z" fill="#434343"></path><path d="M0 445L21.5 448.3C43 451.7 86 458.3 128.8 459.2C171.7 460 214.3 455 257.2 456.5C300 458 343 466 385.8 472C428.7 478 471.3 482 514.2 485.5C557 489 600 492 642.8 496C685.7 500 728.3 505 771.2 495.7C814 486.3 857 462.7 878.5 450.8L900 439L900 601L878.5 601C857 601 814 601 771.2 601C728.3 601 685.7 601 642.8 601C600 601 557 601 514.2 601C471.3 601 428.7 601 385.8 601C343 601 300 601 257.2 601C214.3 601 171.7 601 128.8 601C86 601 43 601 21.5 601L0 601Z" fill="#535353"></path><path d="M0 483L21.5 487.2C43 491.3 86 499.7 128.8 503.3C171.7 507 214.3 506 257.2 505.5C300 505 343 505 385.8 508.5C428.7 512 471.3 519 514.2 525C557 531 600 536 642.8 534C685.7 532 728.3 523 771.2 519.7C814 516.3 857 518.7 878.5 519.8L900 521L900 601L878.5 601C857 601 814 601 771.2 601C728.3 601 685.7 601 642.8 601C600 601 557 601 514.2 601C471.3 601 428.7 601 385.8 601C343 601 300 601 257.2 601C214.3 601 171.7 601 128.8 601C86 601 43 601 21.5 601L0 601Z" fill="#646464"></path><path d="M0 532L21.5 531.7C43 531.3 86 530.7 128.8 531.5C171.7 532.3 214.3 534.7 257.2 538.8C300 543 343 549 385.8 552.2C428.7 555.3 471.3 555.7 514.2 553.7C557 551.7 600 547.3 642.8 544.3C685.7 541.3 728.3 539.7 771.2 538C814 536.3 857 534.7 878.5 533.8L900 533L900 601L878.5 601C857 601 814 601 771.2 601C728.3 601 685.7 601 642.8 601C600 601 557 601 514.2 601C471.3 601 428.7 601 385.8 601C343 601 300 601 257.2 601C214.3 601 171.7 601 128.8 601C86 601 43 601 21.5 601L0 601Z" fill="#767676"></path></svg>